<mxfile host="Electron" modified="2023-11-29T17:31:14.970Z" agent="Mozilla/5.0 (Windows NT 10.0; Win64; x64) AppleWebKit/537.36 (KHTML, like Gecko) draw.io/22.1.2 Chrome/114.0.5735.289 Electron/25.9.4 Safari/537.36" etag="OGoeuCMvHVf_7wng7-sK" version="22.1.2" type="device">
  <diagram id="C5RBs43oDa-KdzZeNtuy" name="Page-1">
    <mxGraphModel dx="1893" dy="1096" grid="1" gridSize="10" guides="1" tooltips="1" connect="1" arrows="1" fold="1" page="1" pageScale="1" pageWidth="4681" pageHeight="3300" math="0" shadow="0">
      <root>
        <mxCell id="WIyWlLk6GJQsqaUBKTNV-0" />
        <mxCell id="WIyWlLk6GJQsqaUBKTNV-1" parent="WIyWlLk6GJQsqaUBKTNV-0" />
        <mxCell id="dTW9vSq1-uFD9PDRzDju-40" value="" style="group" parent="WIyWlLk6GJQsqaUBKTNV-1" vertex="1" connectable="0">
          <mxGeometry x="1620" y="1380" width="70" height="80" as="geometry" />
        </mxCell>
        <mxCell id="dTW9vSq1-uFD9PDRzDju-39" value="" style="shape=image;verticalLabelPosition=bottom;verticalAlign=top;imageAspect=0;aspect=fixed;image=data:image/png,iVBORw0KGgoAAAANSUhEUgAAAgAAAAIACAYAAAD0eNT6AAAABHNCSVQICAgIfAhkiAAAAAlwSFlzAAAOxAAADsQBlSsOGwAAABl0RVh0U29mdHdhcmUAd3d3Lmlua3NjYXBlLm9yZ5vuPBoAACAASURBVHic7N13mGRXee/779oVOqfpnunc1RMkjXIYBRQAIRACAQZjMMkiCYONcU6Pfc49xtc2xsfmYM7lHsN9bDIGJJIAIxRBcTQKM8rShO6prs45d3Wlve4f1SON0kz1Wrtq7+p+P8/Tz6Teu1/ETO/fXuFdIIQQQgghhBBCCCGEEEIIIYQQQgghhBBCCCGEEEIIIYQQQoiAUn4XIF4gCpwKdABtwDYgDawCGWAUGASOAis+1SiEEGIDkADgr3rgGsdx3qi1vgA4i3wIOJks8IRS6gHXde8EbgaWi1inEEIIISyFgd9QSt2slEoppbQHHytKqR8DbwUcn//3CSGEEOI41cBfKqUGPXrov9LHYeBTFDaSIIQQQogicYDrlVJDRX7wv/ijD/hNZJpHCCGEKLntSqlflfjB/+KP24Aev/9DCCGEEJvFx5VSyz4//I99zAHX+f0fRAghhNjIwo7jfDYAD/2XfDiO82XyixCFEEII4aFqpdQtfj/oT/JxM/kFiUIIITYxWSDmnSql1E+AN/hdSAHu0VpfCyz5XYgQQgh/SADwRlgp9TPgGr8LWYdfaq3fDKT8LkQIIUTphfwuYCNwHOdfgff7Xcc6bXccp0dr/WO/CxFCCFF6EgDsfQj4R7+LMHQu+WmAvX4XIoQQorRkCsBOr1LqcaDO70IsZLXWlwEP+V2IEEKI0pG+8eYcpdRXKe+HP+TXL3wdqPK7ECGEEKUjUwDmrlNK/XExbtzQ0MA5557Hueecx0UXX0Is1ktjYyNaa5YWF4vxJbeSP274rmLcXAghRPDIFICZCqXUQSDm1Q2btmzhuus+zJvedC27Tz/9FT+vr+8Iv/rlndx4w3c5dOigV18eYElrfQow5uVNhRBCBJMEADN/qJT6Vy9utKW5mU9+8vd57/s+QHV14f15XNfllltu5vOf+2eOHDnsRSkopf7Ndd1PenIzIYQQgSYBYP0clT9yd4ftjS551aX86xf+X1pbW43vkUql+KfP/gNf/9pX0FrblpTSWvcAE7Y3EkIIEWyyBmD93qKU+j3bm/z2b/8On/v8/6auzm4NYTgc5rVXvo6enh7uuP022xAQBmaBe62KEkIIEXgSANZJKfU/gd0293jv+z7Ap//273Ec7zZhnH76GXR0dHDHHXYhQCm1C/iCZ4UJIYQIJAkA61OjlPoyEDG9wZVXXsXnv/BFTx/+x5xx5lnkci4P7nvA5jaNwM+AEW+qEkIIEUTSB2B9rsFiv3xVVRV/9w//SChUvNz1+3/wR5x9zrlW93Ac5+0elSOEECKgJACsg+M4V9lc/0d//Kd0dnZ5Vc7LCofD/P3f23Um1lq/yaNyhBBCBJQEgHXQWl9kem1TUxMf+vD1Xpbzis4+51xe9arLbG5xDlDhUTlCCCECSAJA4aLkD88x8ta3vZ1oNOphOSf2kY9+zObyKHC2R6UIIYQIIAkAhYth8Vb8jl9/p4elnNyrX/Na28Bht5BACCFEoIX9LqCMdJpeGA5HOPvsc7ys5aQqKys559zzePihB42udxxnl+u6Hle1IVQDleR3S1Ty/KLQevK7asI8f0BUNa8cGo//PIBVIPkynzcHHNvXuQKk1j5vde3nK+TPcVg67veFEOKkJAAUrsP0wlgsRjhsvHPQ2AUXXGgcAICdXtYSEDXkDz7aRv4B3gA0AY2O4zSu/V6j1vrYz6vIP9hryD/sG/woep1ywMLax/LaxzywpJRaAmZd150h3/Dp2I/H/3wGSPtQtxCixCQAFK7G9MIdO/15lm7fvt34Wq31Lg9LKaZG8uHsuQ/HcbYBLVrrFvIP+21ACyfYwulBG+WgCJEPNU0v/oNj/xuVOmkH8FlgHJgEJpRSY67rTgJTwCj5A6MG137MeFW4EKK0JAAUzvjchOqqwg/58VJPzOqwwiCMAGwBesivv4g5jtMLtGutO4F28tMyL3mob6CHuV+OBYjdkP/v+QqhQZMPCiPAsFJqyHXdUSABDKx9DCEhQYhAkgBQOOMFk+mMP9//YrFem8vryb85F/NgoGpg17EPx3FiWusY0Ev+wf+CgxLkwR44Cmhb+7jgFYJCDhgGBpRScSDuuu4A0AccXvszIYQPJAAUbs70wsmJcS/rKFhbWzsVFRWkUinTW+zEPgBUAKcBp5B/yO/SWp9C/qH/goWV8oDfkELkw1yP1vrV8JIpiBXgCHBYKXXEdd0ja79+lvwUgxCiSCQAFG7U9MKhoUEv6yiY4zh0d/dw5Mhh01vsBPYW+LkV5B/qZwBnOo5zhtb6TPIP/+d6H8tDXrxINfnGU+e8zAjCPHBEKfW067pPAf3A08AzgGxREcKSBIDCGQeA8fFxkskkVVXGxwgYi/X22gSAl1sIGCb/UD/XcZxztdbnAqeTf8t7jjzohQcagD1a6z0vCgbLwDNKqUdd130cOPYx60ONQpQtCQCFGyT/1rHutQBaawYTA5x6mtUpwkZs1gEopc7WWr8OOOe4h/2ZrO1tl4e88EkNcKHW+sIXBYME8LhS6nHXdR8FHiE/aiCEeBkSAAqXJL/a2eg0n4EBfwJAT4/VToB3KqXeCfKwF2Xh2FqDtx4XDBaAJ5RSj7iu+wj5UPA0zzdXEmLTkgCwPkcwDADxgaMel1IYy50AQpS7euByrfXlx4WCaeAhrfUDwLGPeZ/qE8I3EgDWQSnVp7W+0uTawUTC42oKIwFAiJdoBt6klDr+2Ot+pdR9a6ME9wIHkIWGYoOTALAOruv2FdBF7WUNDMS9LaZAXd3dhMJhctmsL19fiDKxQ2u9Qyl13dqvF4F9WuvbgfuAB5EWyWKDkQCwPkdMLxyIxz0so3DhcJjOjk4SiQFfvr4QZaoOeINS6g1rv14C7tda3wPcRT4QGDfYECIIJACsT5/phcPDQ2QyGSKR0h8K1BOLSQAQwk4t8Eal1BvXfp0E7lsbIbgdmTIQZUgCwPoYjwDkcjmGh4botTigx1Rv73buvefukn/djS5SGSIUdohUhXDCimhlCCfsEK0KoUKKaFUYJ2R8hAS5rEtmNUcu45JNuWRTObIZl+xqjlxG5/8sK88cn1TxwhGCaaXUna7r3kE+EBi/LAhRKhIA1meB/AlpW00ujg8c9SUAWG4F3FBCYYeKujCVtREqasNU1UWoqI1QWRemojb/UVkbobI2TGVdhFDUIVIRIhRxCFeGCEXUcw/+oMgkc+RyLpmVHG5Ok17J4rqa1HKW9EqO1cUMqaUMqaUcybWfry5mWF3Mrv2YIbUsa0QsNWut362Uevfar/uUUje7rnsz8CvyLY+FCBQJAOt3BMMAkBjwZxh+o+8EiFaFqN1aSe2WCmqbK6hprqBmS5Ta5goq6yNU1q090GsjRKpCJ79hmYlUhYgQorLWfHpJa/2CQHDs5yuzKZam0yxNp/IfUymWZ1LkMjLycBI7tdafUkp9ClgF7tJa3wzcDBzytzQh8iQArNPaVsBLTa71aydArLfXl69rywkrapsrqW2pOO7hHs0/3FsqqWmKUre1kkjlxnuol5pSiqr6CFX1hYWIlbk0y7NpFidXWZ45FgzSLE+nWJxKsTybYmVWFs2vqQSuUUpdA/wr+fMNfuK67k3kdxjkfK1ObFoSANbJZiugXwvxenpiKKUC2c0vFHao3VpBQ1sVje1V1LdW0tBeRUNbFc2xWsLR4Ay1i+dVN0apboyydXvtK36Om9UsTq4yP5ZkbjTJwvgq86NJpgeWmB1ewc0F7+9jiezSWv+JUupPgBml1B2u6/4M+DH5aUYhSkICwPoZLwSMH/WnG2BlZSWtbW2MjRqfZ2SlojZMY3s1De1VNHVUU99WSWNHFY0d1dRuqcifKi82HCes8mGuvYqe81/4Z7msy8L4KnMjK8wOrzA/mv/53EiShfHkZgoHW45bO5AE7tBa/wC4CTncSBSZBID1Mw4Ag4MJXNfFcUr/VhuL9RY9AIQrQjTHati6vZYtPfkfW7bXUt0YLerXFeUnFHZo6qymqbOa7Re98M/crGZhIsnscH60YCaxwtTAEjOJZTKrG3q0vAp4q1LqreSbDt2htb6RfBiY8bUysSFJAFg/4+096XSasbFROjo6vaynILGeGPse2OvJvZSjaGyvYuuO/IO+pTf/oG/sqHrxee5CrJsTVjR2VNPYUc32i5qf+32tNQtjq0wNLDE9sMx0fJmJ/kVmh1bQ7oYbMYgCb1ZKvRnIALdrrb8P/AgZGRAekQCwfpPkDw5pMLk4Hj/qSwDosdgJEK4Ice5bOmmO1dCyvVbm5oUvlHp+SmHnq57fiJNN5Zg8usRk3yKT/UtM9C0ydXSJbHrD7FSI8HwY+D/AzVrrbwM/I7/DQAgjEgDM9AEXmFyYGBjgssuu8Lick4vFLHoBaM1rPnaKzNWLQApXhGjf3UD77uczuZvTzAwuM3ZwgfFDC4wdXGAqvrQR1hZUAO9QSr0DmFdK/dB13W+R7zWwYRKPKA0JAAbWtgIaBQD/tgKaNyDKpl0Wp1PUtVR4WJEQxeOEVH5qqreWs67pAPJ/jyeOLDJ2cJ7xw4uMPD3PwnjS50qtNGitP6KU+ggwrJT6T9d1vwo843dhojxIADBjvBDQr2ZAvZa9AOZHVyQAiLIWjjp0nNFAxxnPjxQsz6YZPzjPyDMLDD81x/jBhXJtr9yptf5zpdSfA49orb8JfBNZPChOQAKAAZteAPG4P1sBa2vr2NLczMz0tNH1cyNJus5u8rgqIfxV0xRlx6u2smNtTUEmmWP04DzDT84x/OQco8/Ml+Nagj1KqT3AZ5RS318bFbgLKPv5D+EtCQBmjHcCDPh4Kl+sp9c4AMyPlvVQqRAFiVSF6DlvCz3nbQHyawkm+xdJHJgh8egsI0/NlVMgqNZaf1Ap9UHgiNb634GvkF/ILIQEAEPGUwAry8tMTU3S0mJ0nICVWG8vBw48YnTt3IgEALH5OCFF6yn1tJ5Sz0W/2Us27TLy9BxDj80R3z/NxOHFQHbYfBm7lFKfBT6tlLrRdd0vAff7XZTwlwQAM8Pku3ZVmVwcj8d9CQA2pwLOjcphZkKEo85zIwSXfWgHyfk0AwdmSOyfZWD/NEvTKb9LPJlKrfV1SqnrgMe11l8CvgUs+lyX8IEEADMa6AfONLk4MRDnwgsvOvknesxmK6CMAAjxUlUNUXZf2cbuK9sAmIovMfDINEcfmmb4ybmgbzs8Ryn1f4B/VEr9h+u6XwT8WaQkfCEBwFwfpgEgkfC4lMLYNANKr2RJzqepapC2vkK8kmNbD/f8RozMao7BR2c4+tA0fXsnWQ7u6YgNa4cT/RHwc631F4A7kEWDG54EAENKqSOmc38DPu0EsN0KODeSlAAgRIEilaHndhhc9XunMfL0PEcfnOLI3klmhwI5pebw/FkEB9aCwHfIn0sgNiAJAIZstgL6tROgubmF2to6lpbMpvvmRldoP92oA7IQm5pyFJ1nNdJ5ViNXfHQX86NJ+vZNcvjeSUaemvO7vJdzvlLqa8BntdZfBj5PvgW62ECkobs5862APo0AgKwDECIIGtqruOAdPbznX/Zw/dcu47WfOIWOMxuD2G67TSn1N0qphOM4XwDa/S5IeEcCgDnjrYCzs7PMz/sTpm1aAs+PyrkjQnitvvX5MPCxr13OFR/dxdaddX6X9WL1Wus/UEr1OY7zRaDL74KEPQkA5gbIH9NpJOHXmQA2IwCyFVCIoqrbVslF747xW1+8mA99+VW86gM7aOqs9rus41VprX9PKfUM8HG/ixF2JACYy5IPAUYGfDoTwGYngEwBCFE6W3pquPS3tvPhf7+U93/hIva8s4eapsAswq1VSn0Z+Au/CxHmZBGgnSPALpML/ToTwGYEIDmfJr2SJVotf22EKKXWU+tpPbWeKz66i/jD0zx9+yj9+6bIZfxtS6yU+ozW+j7gPl8LEUbkO7mFtWOBja4dHPRnBCDW02t1/dxokm3Bm58MHEcBaELq2K81KEVI6ed+rVCo47ZaOwqUeuW/T846dp1orV+wiVujcF1Agbv2B67O3y+39gxxUbhaoV05WD6onJBixyUt7LikhdRSloN3j/PMnWN+7iQIKaX+Xmv9Or8KEOYkAFhwXfeI+amAcW+LKVBrWxsVFRWkUmYtS+dGVjZkAFCA44CDxlEaR+UfyKG1h3LIAUX+RweO+xyNWvtctXafEz3Ey4UGtFbkNGidDxA5F3I6Hxxy7tqPa7/OPvdr9VzAEMVVURvmnGs7OefaTqbiSzz5ixGevmOU1FK21KVcSX5R4FCpv7CwIwHAjvFWQL8WATqOQ09PjMOHDxldXw7rAPIP7vzDOqTyD/SQIv/wVprw2sM75Dz/oHc2wEPbS8eCjPNcvtUQKuxarSHr5sNA1s2Hg9xaSMi5Dpm1Py+PM3TKQ0tvLVf+zqlc8dFdHLprnMdvHmb0mZLuNLoYCQBlRwKAHeMAMDExwcrKCtXVpV/hG+vtNQ4Afh0LHHKOPcQ14bWfh9ULf+/4N3bhH6UgEtJETtRJVityWpN2FVnXIeMqsjlF2mUtNARvQ3w5CEcdzri6nTOubmfy6BJP/HyYZ385Rmq56KMCjcX+AsJ7EgDs9JOfLl33bgqtNYOJAU7bfbr3VZ1EzGIngNcBQCmIOJqQo4koCDsu4VD+zT2sjj3YlTzUN5q18FblaCD3kj92NaRyikxOkc7lA0Iqp8hqQEs4KMTW7bVc9Xun8errd/HMHaM8+pMhphPLxfpyM8W6sSgeCQB2VskfDdxtcnF8IO5LALA6Fnik8F4ASmnCCsIOhEPu2s91/teOJqxcQgVFJ3n4bzaOgqqwpiqsOX5JotaQdh1WM/lAkP+Q3cwnEqkMcc5bujjn2i4GDszw6E2DHH1oGtMFzC9DAwe8upkoHQkA9o5gGAD8awbUa3zt0nSabNolHHVQ5N/ewyFNNKTXHu6aiHNsDl4HsLOpKGdKQUXIpeK49QgaSOeeDwXJbH7EQLyIgtgFW4hdsIXZ4RUe++kQT906Qjr50hGYdbofi54owj8SACytbQU02gLj17HANgFAa03lwgJdO6vlAS8CQfHSUJDTimTGIZnNB4J0Tv6mHq+ps5orf+dUGjuq+OW/ma0HOkZr/XmPyhIlJgHAktWpgD6NAHR2dREOR8hmzToZL4ytED6lyuOqhPBOSGlqozlq1xrn5bQimVWsZBxWMo4sMgS0qzlwk/XC/WeAH3lQjvCBBAB7FqcCxj0so3DhcJjOzk7jADI1JIcCifISUpraiKY2kl9PkM4pljMhVjKK1ayzKVeZPHPn2LrW9LwcrfU/IH2jypasnrFnfCrgyMgwmYzxeUJWeixaAk8NmzUREiIooiFNU2WWzroMsYY022qy+QWHm2S3idaah79vPW3fD3zPg3KETyQA2DMOALlcjqHBQS9rKVivxbHAk0PBbwYkRKHCjqY+mqOzLk1vfYbmqizR0MYOAofvmWB6wG5LoNb6H8kfiibKlAQAe4vAhOnFA4m4d5WsQ3d3j/G1EgDERhV2NE2VOXrq03TXp2msyD13fsNG8tCN1m//g8A3PChF+EgCgDfKbh2AzQjA9GiKXHbjfVMU4ngVIU1LdZbehgytNRtnVKD/gUkmjixa3UNr/T+BtDcVCb9IAPCAUsp4GiCR8Gf7rM0aADenmRmTdQBic1BKUxfNjwp01WWoibhlvf3Vg7f/ceA/PChF+EwCgAdc1zUfARjw6VjgWC+OY/5/v0wDiM2oMuzSXpuhuz5NXTRXdosGB/bPMPK03SFBWuvPAfINYAOQAOANiymAo17WUbCKigq2tbYaXy9bAcVmFg1pWmuy9NRnqI1ad9IrmQe/G7e9xQzwJftKRBBIAPCG8RTA4GCCXM6fbyA2HQGnRiQACBF1NG01WTprM1SEgr0dfvSZeYaemLW6h9b6X8kvfBYbgAQAbxgHgHQ6zdjYqJe1FKzXIgBMDkoAEOKYqohLV32G1poMYSeY0wIP/Kf1aOMC8EUPShEBIQHAG1PAnOnFfrUE7rY4FVDWAAjxQgqoi7r01KdprAzW+oCJvkXij0xb3UMp9UXAbghBBIoEAO/0m17o31bAXuNrp4ZX0cEe8RTCF46ClqosHbXBGQ3Y959x21O1V1zX/YI31YigkADgkfLcCthrfG0m7TI/JVsBhXgl1WFNd12Gmoi/iwSnE8v07Z20uodS6stYNDwTwSQBwDvmAcCnrYA2IwAAE7ITQIgTCjmattosW6uzKJ+mBB78Thytrb52ynXdz3lUjggQCQAesekFEPdpK2BtbR1bmpuNr5+SdQBCnJQCGipydNVliZS4m+DcaJJD94xb3UMp9RVg2JuKRJBIAPCOeS+AxIBtQjdmsxNATgUUonAVIZfuugx1kdItnnnoe3HcnNX3lozruv/sVT0iWCQAeMd4CmBleZmpKbs5OlM26wBkJ4AQ6+MoTWtthq3VGVSR+wkvTq7yzB1jVvdQSn0b8GeIUhSdBADvjAArphf71RK4x2oroKwBEMJEQ4VLrD5NZbh4owEP3TBALmt1/5zrup/1qh4RPBIAvKOxSMp+tQS2WQgoIwBCmAs7ms66DM1VOc8XCC7Ppnnq1hGreyilvg8c9KYiEUQSALxlsRUw4WUdBbOZAlhdzrE0m/GuGCE2GQU0VWbpqs1Q4eECwUd+kCCbtnr7167rfsarekQwSQDwkE0vgIEBn0YALAIAwISMAghhrWKtZ0BrTZaQ5dqA1YUMj/98yLaknwCP295EBJsEAA+V47HAW5qbqaurN75e1gEI4RGlqYvm6GlIUR/NYZoD9v94kEzSrvmQ1vqfrG4gyoIEAG+V3bHAALGY+UJA6QUghLdCCrbVZOmsy1AVXt+0QHoly6M/HbQt4VZgr+1NRPBJAPCW8RTA3Nwc8/PzXtZSMJt1AFMj0gtAiGKoDLt01qXpqstQVeBugQM3DZJaylp9Xa31P1jdQJQNCQDeSgDGq+LKcifAoIwACFFM+SCQOWkQyKzmOPBj67f/ASwONhPlRQKAt7Lk/wEZ8WsdgNWxwMOyBkCIUjg+CNRE3JesEXj8v4ZILljvyokppQaVUn2O43wZ+CDQaXtTEUwSALxXdjsBbNYALM1mSFoOOQohClcZdmmvzdBVn6FubbFgLuOy/0fWb//H26G1/rhS6utKqaHjAsG7gSYvv5DwjwQAj9kdC+xPL4De2Har66dkFECIkqsIubTWZOmpT3Pk9iGWpou6HudYILhBKTWplHrYcZzPAm8D6or5hUXxhP0uYKNxXbdPGTb59utUwNa2NiorK1ldNXuQTwwm6T6t1uOqhBCFcLTLAzeU9OUhBOzRWu9Z+16XAvZqre8E7gAeJD8dKgJORgC8Z7wVMOHTGgCllNWZADICIIR/9t08wcyYr7txKoArlVL/t1LqPqXUnFLqNuAvgT1+FiZOTAKA94ynACYnJ1hZMT5PyEqPTS8AORZYCF+4rua2b1p3/fNaDfAGpdRnlVIPy/qB4JIA4L2jgFETbq21b6MAvb3m6wDkUCAh/LH/9ikmEoH/9/fi9QN7Hcf5W+AKZBraVxIAvLcKGEfygUTcu0rWobu7x/haaQcsROlpDbd8PXBv/ycTAl6ltf4fSql71qYLfgp8HGjzubZNRwJAcZRdS+CYRTfA+ckUmVTxzjUXQrzUY3dNM9K37HcZtmqAtyqlvry23fBh4NPk1w5YHoskTkYCQBGU41bAmEU3QK1lGkCIUrv1657u+w+CELBHKfU3x60d+AJwGRIGikICQBHYnQoY97CSwnV2dhEOR4yvl50AQpTOU/fPMvDMkt9lFNt2rfUfrO0sGFgLA7KrwEMSAIrDvBtgPO5hGYULh8N0dpl3/JR1AEKUzi0b7+3/ZLrXwsDDSqnHgT8FzM8xF4AEgGIxHgEYGRkmnU57WUvBbNYBTI1IABCiFA7tn6fvsQW/y/DT2Uqpf1FKDa2NCnT4XVC5kgBQHMYBwHVdhob8Sfc2LYEnByUACFEKt3zN7vtDRU2YjjMacEJlP61etzYqcAT478iWwnWT/2DFsQiMA60mF8fjR9mxY6e3FRXAphmQLAIUovjiTy3y7INzVvc4/+3dXHrdDtLJHEOPzzL42CyJAzNMDSyB9qjQ0qpSSv0dcIXW+h3kt2KLAkgAKJ4jGAYAv5oB2UwBzIylyGU1oXDZv1UIEVi/sHz7j1SFOP/t3QBEq0LsuKSFHZe0ALAymybx2AyDj86SeHSWhfGyC/XXOI7z967r/pnfhZQLCQBFopTq01pfbnJtIuFTALDYCujmNNOjq2zrrvKuICHEc4YOL/PkvTNW9zj3LV1U1r/8bp/qpii7r2xj95X5fjxzo0kSB2YYfCw/SpCc92dt0nporX8H+G/kDygSJyEBoEhc1z1ieiqgXzsBurt7cBwH1zVr6jM1JAFAiGK55WuDaIsh+nDU4YJ3Ft7xs7G9isb2Ts65thM0TPYvkng0HwiGnpwjk8yZF1M8NcBFwL1+F1IOJAAUT7/phX71AqioqKC1rY3RkRGj6yeHk8hZH0J4byy+woFfTlnd4+w3d1LTFDW7WMHWnXVs3VnHnt+IoV3NRN8iiQMzJB6dZfjJOXKZwHQD3YUEgIJIACge414Ag4MJcrkcoVDIy3oK0hvbbhwApoZk1E2IYrj1G0Noi+drKOywZx1v/yejHEXrKfW0nlLPRb/ZS2Y1x9ATcww+NsvAI9NMxX1tUlR2ixf8IgGgeIy3AmYyGUZHR+jq6vaynoL0xGLs3Xuf0bX5EQAhhJemhld56JZJq3uc8YZ26rZVelTRS0UqQ2y/qJntFzXDx3axMpdm6IlZBh+dpe+BKZZnSvpysL+UX6ycSQAonilgFsMx8YGBAX8CQI/5VsAp6QYohOdu++YQbs588l85ij3v8u7tvxDVjVFOfXUrp766las+pZk4v/m/UQAAIABJREFUctx0wRNz5LJFmy5YwOLla7ORAFBc/Rj2rh6IH+Xyy6/wuJyT67XYCTA5vIp2QUl7KSE8MTeR4oGfT1jdY/eVbTR1VntU0fop9dLpgtFn5kk8Okv/A5NMJzw90fAeIDCLEYJOAkARKaWOaK2NAoBfpwL2WPQCyKZd5iZTNLVWeFeQEJvY7d8eIZu2eJ4puPDdpX37P5lIZYie87fQc/4WrvjITuZHkwwcyPcfGNg/TWo5a3xvrfXNHpa64cm7WnFZHAp01Ms6CmYzAgDSEVAIryzOZrjvplGre5xy2TZaems9qqg4GtqrOOfaTt7y12dx2Qd32N7uF17UtFlIACgi13XNtwIm4h5WUriamlqam1uMr5dTAYXwxp3fGSa9ajeafdFvmq/p8cPhe60WOx5C5v/XRQJAcVkdC6xtun5YiFmcCTA9IlsBhbCVXMpyzw/HrO6x4+IWWk8tnxNzV2bTDD9lfs6BUkqG/9dJAkBxGQeAZDLJ5KTd4h9TsV7zUwEnBmUKQAhbd35nmOSS+Vw4lN/b/5H7J9Cu+UuP67oy/L9OEgCKaxRYMb3Yr5bANiMAsgZACDurKznuutFu7r/73CY6zmz0qKLSOHK/1fD/MnCXR6VsGhIAiktThi2BbXYCTA7KGgAhbNz9/VGWF+ze/i99f683xZTI6kKGwcdmbW5xM9IBcN0kABSf8TSAX1sBbUYAUskci7MZD6sRYvPIpF1+dYNZK+5jes+s48yLGjyqqDSO7J20anaktf6xh+VsGhIAikwpZbwqNeHTToDemPkaAIBJWQcghJF7fzTK/JTdsbtv/mg3dRXl1QvnyH1W650ywM89KmVTkQBQZK7rGgeAuE9rAJq2bKG+3nz18OSwTAMIsV65rObO79i9/XedWsOZl22hIuQSDfmzi2i9UktZEgeshv9/Rb7tulgnCQDFZzwFED9qvHzAWsxiHcCULAQUYt32/mycmTG7bbRv+kg3SuV/Xhstj1GAvr2TVmcDyPC/OQkAxWccABYWFpibM98Xa8NmIeDUsPQCEGI9XFdzx7eHre7R1lvNea99volXbSRnW1ZJHLZb/a+Bn3hUyqYjAaD4EoDxpF7Cp50ANi2BpReAEOvz0C8mrf/dXPOhrhccxBUN6cBPA6STORL7p21u8SAw5FE5m44EgOLLAQOmF/u1DqDb5lhgWQMgRMG0C7d9y+4Z1tJZyYVv3PqS3w/6KED/A5NWhx3J8L8dCQClYbEVMO5hGYWLWQSApbkMyUW7fcxCbBYHfjnFaL9xvzAA3vjBLpyQesnv10SCvQ7gyH1Ww/8AEgAsSAAoAaVU+fUCsGgHDLITQIhC3fZNu7f/xm0VXHJt68v+WUUIQiqY0wDZVI74I1bD/4eAZz0qZ1OSAFACVlsBfdoJ0NraSlVVlfH10gtAiJN74t4ZEs8uWd3j6t/qJBx56ds/AEpTHQlmAOh/cJrMqvkUhVLqhx6WsylJACgN4wAwMGC8fMCKUspqHYCMAAhxcrd+w+7tv35LhMvf3nbCz6kO6DTA4XvtDjtzXfdGj0rZtCQAlIbxFMDk5ATLy3ZvCKasjgWWACDECT374Bz9jy9Y3eOq93cSqTjxt/GqSI5XGB/wTTbtEn9oyuYWR4EDHpWzaUkAKI2j5HcDGBlMDHpYSuFsWgJPDEkAEOJEbvma3b/rmvowr35n+0k/L6wgHLDtgPGHp0gnrYb/byDfA0BYkABQGinAuMtHfOCoh6UUrrunx/ha6QYoxCvrf2KBQ/vnre5x5Xs6qKwOFfS5VaFgTQPYrv53Xff7HpWyqUkAKB3jaYABn3oB2LQDnp9Kk14N1jcdIYLi5q/Yvf1X1oS48jc7Cv/8cHD+LeYyLv37rIb/48Aj3lSzuUkAKBG7rYD+LASMWXQD1BqmhmUUQIgXGzy4xDMP2J1dc+W7O6iuCxf8+ZXh4IyWDzwyTWrZvE+IUupGZPjfExIASsRmK6Bf7YA7O7uIRCLG10tHQCFe6hdfHURbPL6ilQ5Xvqfwt3+ASEjjBGQloGXvf1n97yEJAKVjfiqgT1MAoVCIzq4u4+vlTAAhXmi0f4XH7rZqfsMV72inrml9wVwBFQFYCOhmNf0PWA3/DwAPe1TOpicBoHSMRwBGR0dIp43PE7Jisw5gekROBRTieLd8fQhtMR0fjjq8/gOdRtdGA7AQcODADKuLGePrZfjfWxIASqcPw7+4rusyNOTPVkCbADA5KFMAQhwzObTKI7fbDX9f+tZWGrdGja4NQgDwoPmPrP73kASA0lkCjP/2x+P+bAXsseoGKFMAQhxz69cHcXPmL6+hsOLq3zJ7+wd8PxrYzWr69loFoEHyx/8Kj0gAKK1NtRVwZjRFNiOjdULMjqd48Bd2b78XvWkbzR2Vxtf7vQZg4MC0DP8HjASAEtpsWwFdVzMzJtMAQtz2zWGrMOw4ijdeZ74gF8BR4Ph4MuDhe2T1f9BIACghu62A/gSAnp4YjmP+12RKWgKLTW5hOs39Px2zusf5r2+hNWZ+OucxEZ++47tZTd8DVgFgCNjnUTlijQSA0jI/FtindsDRaJS2tpP3G38lE9ISWGxyd/znCJmU+QI8peCaD9m9/R8TcfwZAfBg+P/7yPC/5yQAlJbxFMDQ4CC5nPnhGTastgIOy1ZAsXktz2e454ejVvc4+9XNdO6q8aSesE8BQIb/g0kCQGkZjwBkMhlGRozPE7Jisw5gUkYAxCb2y++NkrI49Q7g6uvMV/6/mB8BwIPh/2HgAY/KEceRAFBa04BxE3A/1wGYmpQ1AGKTWl3O8asbR6zucfolTew4u96jiiDkQwDwaPjf/yYGG5AEgNIzXwfgUy8AmxGAqZFVq85nQpSrX90wQnLR/NAbgDd92Ju5/2NCPpwH4MHwvzT/KRIJACVmtxUw4WUpBbNZA5BNu8xOyDoAsbmkkzl+eYPd2/+Oc+rZdX6DRxXllXoboAfD/2PA/R6VI15EAkDpld2pgL0WAQBkHYDYfO7+4ShLs+bD3gDXXt/tUTXPC5X4O75HzX9kDLFIJACUmE0vgLhPAaC6poaWlq3G10svALGZZNMud37H7u2/+7Radl/c5FFFz3NKvJNOVv8HmwSA0jOfAhiIo20OErcQi5kvBJwakQAgNo/7fzLO/JTd6Z3XXt+NKsJ8fTHu+Upk+D/4JACUnvEIQDKZZGLCrp+4qVjvduNr5VRAsVnksprbv223Xbd9RzVnX9HsUUUvVroEEN/vyep/f5qfbBISAEpvFFg2vdivdQA9PT3G18qpgGKz2HfzBNOjdoH3zR/pRhXpO3MpNwHI0b/BJwGg9DTQb3px3K9TAWUEQIgTcl3Nbd8csrrH1q4qzn99i0cVvYwS7QJws5r+B6ZsbjEO3OtROeIVSADwh/E6gMFBn04FtGgGlErmWJixmxMVIuj23z7FRMJutOtNH+7CcYr3nq4ozSiAB8P/P0CG/4su7HcBm5FS6ojpYj7/mgGZjwBAfhSgfkvUo2qCxXU1q8s5kkvZ55oeaa1JLj3//cvN5T/nGK016kUrsqrrX/jPsao29NznhMKKiuoQVbXhki7kEoXRGm75ut3bf3N7JRe9aZtHFb08TWlO1DlyrzT/KQcSAHzgum7fi7/5F2rAp3bATU1NNDQ0MD8/b3T91PAqO8/1rqWpl9ycZmku89zHwnT+x+X5LMmlLKmky+pyltXlHKlk/iP/wM+RTubIpEu7TTla6RCtClG5FgiilQ4VVSEqa0JU1oSpqHKoqg1R0xihrjFCXXOU2oYwtY0RahsjOH60g9vgHr97mpE+46U9QL7nfyhc3P9vSrGJKJd16dtrFQAmgLs9KkecgAQAfxjvBBjwaQQAoCfWyxOPP2Z07dRw6dcB5LKauYkUs+MppsdSzIyuMj+VYXEmzeJs/gGf/9GuYUuppVdd0quucaOZmoYIdU0RatZCQUNLlIatUZpaK2hur6CptYLGrRVFfxhtJLd8bdDq+oaWKJe+tdWjal5ZKaJq4sAMq0tWw/8/0lrL8H8JSADwh/EagIWFBWZnZ2lq8r5JyMnEYjHjAFCMQ4FyWc3kUJLJoVVmxlaZHU8zO772wB9ZZX46LecQvIzl+ZOHHsdR1DdHaO6opGlbBU1tFTRui9LcVsm2nipaOislIKx5eu8sA88sWd3jDR/oJBwt/pIsrYv//5k0/ykfEgD8MQikAaNJ8cRA3JcA0GuzE8CiHXByMcvk8CpTw6uM9i8zFk+u/Xyl5MPvm4XrauYm08xNvvziTSek2NJWQUtnJe3bq2nbXk1LRyUtnfmPzcR27r+mIcLl72jzqJoTK/YUgAfNf6aAuzwqR5yEBAB/5ICjwGkmF8cH4px73vneVlSA7u7iHgucSuYYOrTM4MElRvpXGB9IMhZfse6pLrzn5jRTa6Hs2QfnXvBnNQ0RWmNVtPVW07Gzmu7Taug6tZbK6pBP1RbP4f3zHHnUbF3MMa9/fwcVVaX5b5MrcgDwoPf/D7XWdkcoioJJAPBPH4YBwK9mQDbtgJfnM6wsZqmuy/+VW13OMXxkmcSziww+u0zi2SXGB5K4rj+tjoV3lucz9D+eof/xhRf8fkNLlJ7dtXSfVkPP7jpiZ9RS31zeO0N+YTn3X1Ub5jXvbPeompPLFXkK4NA91s1/bvCoFFEACQA+sdkK6NdOANutgD/90gCLMxkSB5eYlvMBNp35qTRP3DvDE/fOPPd7jdsq6D6thu7TatlxTh07zq4v2duwrfhTiy8Z/Viv172ng6q60n0bzrnFCwC5rEv/XqvmPzL8X2ISAHzium6/6VZAv0YAtm3bRnV1NSsrK0bX3/2DUY8rEuVubiLF3ESKJ+7JhwLHUbTGqth5bj07zqnnlAsa2NJW4XOVL8/27T9aFeK17y7d2z9AtogBYOART1b/y/B/CUkA8M9h0wv9ageslKK7J8bBZ5/x5euLjc91NaNHVxg9usK9Px4D8u1x84Ggjp3n1tPWW+1zlTB0eJknjxvJMPHa32intjHiUUWFKeYIwOH7pPd/uZEA4B/jXgBTU5MsLy9RU1PrZT0FicUkAIjSym/1TPLAf40DUNcU4ZQLGjjr8i2cdcUWaupL/23slq8NWq2oj0QdXvfeDu8KKlC2SJtm3Ky2Hf6fBu70qBxRIAkA/omT3w1gNOGZSCQ4/fQzPC2oELGY3ToAIWwtzmbYf8cU+++YwnEUXafWsPviRk67sJFT9zQUvdPhWHyFA7+0ethx+TvaaGgp/QLITJFGAOKPTMvwfxmSAOCfFPl+AL0mF8fjR30JADbHAgvhNdfVJJ5dIvHsErd+Y4jaxgi7L27k9EsaOeuyLdQ2eT/Efus3hqwaTIUjijd8oNO7ggqkKd4aAA+G/3/gUSliHSQA+KsPwwCQ8GsnQKzXl68rRCGW5jI8fOskD986iXJgx9n1nH9VM3vesNWTLYfTI6s8dItdp7tLrm2lqbX0CxvTOacoBwF5sPp/Fhn+94UEAB8ppfq01q83uTaR8GsrYK8vX1eI9dIu9D22QN9jC/zgC0efCwMXvH6r8fD7bd8cxrXopuM4ijf8Vunf/gEyueK8/Xu0+l/OC/eBBAAfua57xHQrYPyoP4cCdXR0EolEyGSkO98rmCPf5vn45vBJ4MWNDxaBWl7+ePYQcOzoxGqgYu3X5bFBPoCODwM//EKcXec3cP5VzZz3uuaCj6mem0yzd20hoqkL37iVbd1VVvcwlQ7u8L+s/veJBAB/GR8KNOBTL4BQKERXdzdH+/t9+fpFtgQMA5PAtFJqDph1XXeO/DDlsR9nyT/UZ8k/7JfXPkrxFtPE8wGhGmgAGo//0XGcRqBRa70F2AZsBVqBLSWoL/BcV3PokTkOPTLHjZ/r58zLmrj0ba2cfcWWEy4gvP1bw2Qtzp5QDrzxQ13G19tKZ70PALmM9dG/s8AdHpUj1kkCgL+MtwKOjY2SSqWoqCj9XGJvbHu5BYBVYAAYVEolXNdNAOPAKPmzx8fWPl5wYpFpp8Yim1378RUnXV33FR9SUfJhYBvQtvbzHsdxurTWXUAM6CIfJDYF19XPdSesb47yqrds49K3tb7kLX1xNsN9N9k1sjrvtS20b/evh8FqEaYABh6ZJrVkvnhfKXWTDP/7RwKAv/rIL85d979M13UZHEywa9cp3ld1Ej0WZwIUiQskgMNKqcOu6x5h7YG/9vvPjdsG9KFeKmnyIxzDx//mywSGWqBn7WOH4zi7tNa7gF3ADvJTEhvOwnSaW78xxG3fHGLX+Q1c9rZWzr+qhUiFwy+/O0J61eLtX8E1H/bv7T+nVVF2ABySo3/LmgQAfy2Tf/M06geaGIj7EgB83AmwADyplHradd3D5LspHiI/lZKCTf+A98oS8PTax4sDggN0kw8DuxzHOVNrfQZwFvlphrKndf6Uv8P757nhf/Vz8TXb2Hez3dz/mZduofu00jfuOmYl4/3DP5t2bY/+nQVu96gcYUACgP/6MAwAfrUELsEIQAZ4Vin1pOu6jwNPrn3EQR7yPnPJj64MAHe8KBw0kw8CZziOc5bW+kzgfJ5f0Fh2kotZ7vr+iPV9/Hz7B1jNOp7fM/7wNOkVq+F/Wf3vMwkAPls7FfAKk2t92wro7QhAlvxb/cOu6z4EPET+YZ+RB33ZmSZ/mttdxwUDBZwC7HEc5wKt9R7yoWDTrDM47cJGdpzjbwZazXkfAA7L0b9lTwKAz1zX7TPdCujXToDu7h5CoRC5XM70Fj/TWt9G/mH/KJCUh/2GpclP0xxyXfc7a7+ngHOVUg8CpT0Nxwd+v/27Wnm+AyCbdunbZzX8P4U0//GdBAD/Ge8E8CsARKNR2traGR4eMrpea/1V4IfeViXKiAZezyZ4+G8/q47TLvR3sGM1qzzvANi/b4pM0vgFAKXUD7TW0kzEZ96PC4n1Mu4FMDQ4RDbrz/kZltMAuzwqQ5SniFLqD/wuohTe9NFuv0tgORPI4X9Z/R8AEgD8ZxwAstkMIyPDJ//EIrBpCew4zk7vKhFl6DryWwyNqTL4ztV9Wi1nXup/7yWvA0BmNcfRh6x6/08Av/KmGmGjDP4ZbXjHOssZ8etQoJ4e850AWmsJAJuXo5T6U5sb9J5Zxz/dfAnX/8NuLnnzNqrqgjmTec2HuzBc3uOZdM77/f/9+6bIrFoN/3+f/FHowmfB/Jez+RwBLjK5MB4/yhWvfo3H5Zyc5VZAmQLYvH4dsDrH+poPd1HTEOGC17dwwetbcF3N0ScWefK+GR6/e4ax+IpHpZpr663mvNe2+F1GUIf/ZfV/QEgACIC1rYBGAWAwkfC6nIJs791hc3k3+W5yKW+qEeVCKfUXNte3b6/m7CuaX/B7jqPYeW49O8+t5+2f7GX06AoH7pxi/+1TjB71Jwxc86GuQExTeD78n7Qe/h8D7vWoHGFJAkAwmO8ESMQ9LKNwPT09KKVMm/I4QC9w0NOiRNC9HrjY5gZXX3fyYfX27dW0X9/Dtdf3MNq/wv47Jnnk9inGB5InvtAjLZ2VXPjGrSX5WieSdRUpjxsA9T0waXcgklI3aq1l+D8gJAAEgNWxwD51A6yuqaGlZSuTk8bDgbuQALCp2L79b2mrWPeDtX1HNW/ZEeMtvx1j8OASj9w+xUO/mGBusngN6N74wa4TnipYKotpx/Ptf4fvldX/G4kEgGAwHgEYTAygtcY0QNiIxWK2AUBsHucBV9vc4Kr3dRIKm/897z6tlu7Tann77/Zy8OE57rtpjMfumiaX9e4x2dRawSXXBuNIhMV0yNP7pZM54g9P29xiFLjPo3KEByQABIPxVsBkMsn4+DhtbW1e1lOQWO92Hn74IaNrHcfZeYJja8UG4zjOX2mtjZ/etY0RLv81bx6syoHdFzey++JGFmbS7PuvCfb+bNyTKYI3/FYn4Yj/b/+pnCLt8fG/fXsnbIf/b9Bayz/6AAnAMhVB/rjaJdOLEz51BIxZ7ARYO15WbA6naK1/w+YGr3lXO9Eqb99oAeq3RLn6ui7+r+/u4Y+/dDbnX9WC45g9ONu3V/PqXzc618tzCynv/1t5cPSvrP4PGAkAwaCxmAaI+xQAenp6bS6XXgCbhOM4fwYYP5EqqkJc+e7iPliVgl3nNfCxz+zm09/fw+ve00HFOgJH/ZYI139mt9UUhZeWMt4GgNRSloFHrIb/E8Bej8oRHpEAEBxW6wD80GvRDZD8LgDvX1NE0LRrrT9kc4PL39FGTUPpjg1o7qjkXX+8g3/4yUW84/d6adxWccLP7z6tlj//ynm0b68uUYUntpR2yHk80N63d5Jcxm71P3i+JlFYkjUAAaGU6jM9Ec+vnQA9ducBRMm3gz3qSTEikBzH+SOt9YmfoCcQjiiuem+HlyUVrKouzNXXdXHV+zp5/O5pHr5tisQziyzOZmjcWkH7jmoue1srZ12+JRB7/o+ZXS3G8L80/9mIJAAEhM2xwH6tAWhsbKShoYH5+XnTW+xEAsBG1qC1/oTNDS5+0zaaWo3zgydCYcX5V7Vw/lX+d/Y7mWRWkcp5m0ZWlzIkDszY3OIo+aO/RcAEKLduesY7AfwaAQDrUQBZCLixfQpoML1YKbjq/Z0elrPxza56/0535L5Jclm71f/I8H8gSQAIDuM1AIuLC8zOWCV0YzbrAORUwA2tUin1KZsbnHtlS2Dm1ctBMqtYKULvfxn+37gkAARHAove+AO+bQXcbnytnAq4oV0PWDWneP37/Zn7L0taMbXi/dt/ciHD4KNWLxf9wH6PyhEekwAQHC4QN73Yv62AVse6yxTAxhRSSv2xzQ1Ou7CRHWfXe1XPhreQcTyf+4d86183Zz56r5T6roflCI9JAAgW43UA/jUD6rW5fCcQjI3TwkvvxbLPw9XXydx/oXIuTK8UZ0etHP27sUkACBCllPE6gIRPxwLH7HoBVAPBaJ0mPKOU+lOb67tOqWH3xU1elbPhTaxEyJl3WX5Fyfk0Q0/M2tziIPCYR+WIIpAAECCu65ofCxz3Zzfd1q3bqK62Wqgl6wA2lrcA59vc4I0fOvmRvyJvIRViuQgL/yC/+M9y+P97HpYjikACQLAYTwEMDPjTDVApRY/FmQDIOoANRSn1lzbXt3RWlsV++yDIuMVZ+HeMDP9vfBIAgsV4BGBqapKlpUUvaylYzOJMANkKuKFcArza5gZXX9dlfBjPZuJqGF2KUKyj9ZZn0ww9OWdzi2eBpzwqRxSJBIBgOQrkTC/2bx2A+VZAZApgw1BK/Teb6+u3RLjk2m1elbNhaWB8OeL5cb/HO3zPONo1H/7XWn/Hw3JEkUgACJY0MGh6sV/rAGy2AsqxwBvG6eTn/41d9b5OIlH5lnQyUyvhos37H2Pb/Ae40Ys6RHHJv7bgKbt1AJZbASUAbACO4/wVFt9PKmtCXPHrVn2DNoWZ1TDzqeIeork8k2LkKePzPQAeB57xqBxRRBIAAsZuK6BPAcBuK2Aj0OxNJcIn3Vrr99rc4Mp3d1BVK2eTncjMapiZZPFP0D549zimJ5MCaK1l8V+ZkAAQMHZbAeMeVlK4jo5OotGozS1kHUAZcxznz4GI6fWRqMNr3iXtIF6JJj/sX4qHP8DheydtbyEBoExIAAgeiymAuIdlFM5xHLq6um1uIdMA5atZa/1Rmxtc+mutNLRYBcgNSwMTK2Hmijzsf8ziVIrRp62G/w8Ahz0qRxSZBIDgMR4BGBsbZXV11ctaCuZBS2BRhhzH+UOgxvx6xVXvlUN/Xk7WVQwvRlks0cMf4JAM/28qEgCC5wiGZ2e7rsvQkPEmAis26wCkF0DZqtFaf9LmBnuu3srWriqv6tkwklmHocUIq9nS9kSwbf4DfN+LOkRpSAAInhVgzPRiv9YB9PSYdwOUrYBl63ewXMApR/6+kCa/2G9kMULWLe3Df3FyldGDVsP/D2ExhSlKTwJAMJXdOgDLdsAyAlB+IkqpP7C5wc6Lm6nuaSSZVWZDXhtMKqcYXIgykwz58t/j4F3jhmOPeTL8X35k300AKaX6tNZGLVX92grYa9cNsA2oA/zpZSxMfBAw7wAFXPCuGLOrIWZX83PcFSGXyrCmKqypiriE1OaIBTmtmEmGWEj58+A/xnL4XyPD/2VHAkAAua7bpwyPQ/NrBKC7u4dQKEQuZ9zJeAdydGi5cJRSf2Jzg/bdDXSd/cIjf1M5h1QO5lOA0lQ4+TBQEXapCmvCzsYKBFrDfCrEzGoYi667npgfSzJ2eMHmFvuAuDfViFKRABBMxtto4j61A45EIrS3d9gsQtyFBIBy8XbgDJsbXPSek0wZaUUqp0jlgLVV8JGQpjLsUhHSVIZcKkKgynCUwNUwnwozt+qQ08E4+OjQPRO2w//S+rcMSQAIJuOtgMNDw2SzWcLh0v9fG+vttQ0AogwopT5uc31zrIadl2xd93WZnCKTCz03T6RUftqgYi0YVIY0kVBwA0E6p1hIh1hIObgBefAf48HwvwSAMiSLAIPJeBFgNptheHjIy1oKZtMLQLYClo0w8BqbG2zdXudJIVrDatZhPhVifDnCwEKUo/MVjCxFmFkNs5wJ+f6GndOKuVSIoYUIiYUoc6uhwD3850ZWGLcb/t+LxSFmwj8yAhBMc8A0hlusEgMDto15jMQsdgLIVsCysRWotrnBs78aIxR1eMMf7MYJefswzLmw4jqsZJ7/vZBDfsogrJ8bMSjmeoJk1iGZdVhJK1ZdBQF74L+Y7cl/svq/fEkACK4+DANAPH6UV7/mtR6Xc3I90g1wM8h6cZOnbh0hOZ/m2r88i0hVcTvd5VxYdh2WMwD5rxVyNBUhTTSkiTqaiKOJhnXBOw80+U59WVeRyR1br+CQKsMtjZYBwEWG/8uWBICAWtsKeLHJtUODPnUD7Om1ubwLqAT86WUsCjWFxejU8fr3TfHdP3mYX/vk8fymAAAgAElEQVSbc2hoK203wJyrWHHVC0YKIL+uIKQ0jgKFJrQ2Serq/JQDSpFzIasJ/Jt9IWaHVpjss9p9ew8w4lE5osRkDUBwGa8DOBrv97KOgvXEYphuXyT/d9GqmYAoCa2Uutmrm03Fl/jOHz1M4tEZr25pRev8m3167Y1+JZP/WM06z73hZ8tgWL9Qh+4Zt7peVv+XNwkAAeW6rnEASAz40wyourqarVu32dxCpgHKgOu6nyM/9OuJ5HyaH/71o9z/9X7cXLkNoJe3Q3dbDf/ngB94VIrwgQSA4DLeCphIDFid6GXD5lAgZCtguXhUKfVZL2+otWbfd49yw589wvxY0stbi1cwk1hmKr5kc4u7sTi3RPhPAkBwGQeA1dVVxsfthvZMWW4F3OFdJaKYXNf970qpr3h939Fn5/nW7z3IM3eOen1r8SIH77Ye/v+eR6UIn0gACK4xwDieD/jUEdDyVMBTPCxFFJd2XfcTwI+9vnF6Jcsv/vlpbvmXp1ldyJz8AmHEsvlPFvihR6UIn0gACDbjUYC4T2cCWPYfkDUA5SWrtX4P4NmiwOM9fccoX71+L/t/nPBtSmujmoovMZ1YtrnFL4FJj8oRPpEAEGzGCwEHfTsVsNfqcmRrarlJa63fBdxajJuvLmW468uHufEv9tvOV4vjWL79y+r/DUICQIAppYxHAAZ82gkQszsWOAJ0e1SKKJ0VrfXblFJFeygMPznHtz/1IL/60iHSSeMTJ8Uay+Y/GWT4f0OQABBgruuaBwCf1gDU19fT2NhocwvZCVCe0q7rvk8p9e/F+gJuTnPgpkG+8pH7eeiGOLmMZzsRN5XJvkVmBq2G/28n3wxKlDkJAMFmPAXg1wgAWI8CSAAoXznXdT+ulPpMMb9Icj7NvV/t45u/u4+Dd41bHWO7GR2+127qXob/Nw4JAMFmPAKwuLjA7Iw/3dVsDgWSUwHLnnZd979prd8LFHVD/+zwCj//7JN885P7rDvabSaW2/8ywE0elSJ8JgEg2AaBlOnF8QF/pgFiMfMRADkVcMP4ntb69UDRn8xT8SX+6zNPcsOfP0L/g1MyInACE0cWmRtZsbnFrUAw+jYLaxIAgs0FjBv7D8Tj3lWyDj09PTaXywjAxrF37UCrB0rxxYafnOOmv3mMb35yH0/fPoqblSTwYnL0rzieBIDgs9gJEPewjMJZ9gLYAWyMk1YEQEJr/Wqt9d/i4fkBJzIVX+KWzz3Nv3/wXvZ+q5/UsicnGG8Ih+2mSlLI8P+GIgEg4MpzK2CvzeXVQIc3lYiAyAKf1lr/OiUcPl6eTfPAt4/yHx++j7u+fJgZu8Y3ZW/s0AJzo1bLMm4B5j0qRwSABICAszsVMO5hJYVradlKdU2NzS1kGmBj+onW+jzgtlJ+0dRSlv0/TvD1TzzAjX+xn4O/GieX3XxbCD1o/iPD/xuMBIDgK7t2wEopYhZnAiBbATeyQa31NVrrT2Jx1oWpoSdm+fk/Pcm/X3cf9361j9lhqwVx5UPDIbvV/0ngJx5VIwJCAkDwGY8AzExPs7S06GUtBbM8FVBGADY2Dfzb2mjAXX4UsDKX5qEb4nztY3v57h8/zIGbBlmZS/tRSkmMHpxnYWLV5hY3A/58MxFFIwEg+OKAce/TMl0HIAFgc+jTWr9Oa/0hwG582sLos/P86kuH+P8+cC8/+OsDPH37KJkN1m740N3Ww/9y9O8GJAEg+DJAwvTiMj0WWKYANg8NfENrvVsp9b8p0U6Bly3E1SQOzHDL557mS++9m5s+/RhP3z5a/rsINBy+zyoArAD/5VE1IkDk5LXycAQw6q5TpiMAEgA2n1nXdf8Q+K5S6vPAJX4Wk0279O+bon/fFKGIQ895W9h5WQu7Lt1KVUPUz9LWbeTpORYthv+VUv+ltd7cWyg2KAkAZUAp1ae1vtrkWr92Alj2AmgAWoApT4oR5WSv1vpS4H1KqX8ErLpKeSGXcTn60BRHH5rijv/nIO2nN9C7Zwu9FzazbVcdSgW7bYVt8x/XdWX1/wYlAaAMuK57xPSbjF8jAO3tHUSjUdJp44VVu5AAsFlp4D+11j8C/kgp9ReA1RGTXtGuZuSpOUaemuP+b/RT3RSld08zvXuaiV2whcr6iN8lvoDWmsP3WgWAJeDnHpUjAkYCQHkwbwaUiHtYRuEcx6G7u4e+PuNNDDspUQtZEVhJ4B+11l8EPqmU+mug3ueaXmBlNs3Tt4/y9O2jADS0VxE7fwvd5zXRc/4WKmv9DQTDT86xNG18nAhKqZ9qrTfJXsnNRwJAeTB+io6PjbG6ukplZaWX9RQk1rvdNgAIAfntZ/+ktf6K4zh/pbX+BPmOkYEzP5rk8dFhHv/5MMpRtO6qo+ucJtpPb6B9dz01WypKWs/he+yO/nVdV47+3cAkAJSHfvLDouueB3Bdl8HBBKeccqr3VZ2E7bHArrv5urWJE5p0XfdPgM8An1JK/T6wxeeaXpF2NWOHFhg7tPDc79VsqaD1lDq27aqj88xGOs5sJBwtzmYsrbXt6v9F4BcelSMCSAJAeVgBRoBOk4sH4nFfAoBsBRRFMkX+bIH/BfyuUuoPgXafayrI8kyK/n0p+vfll7c4YcW2HXW07W6g7bQ62nc30NjhzeDG0ONzLM9YDf/fpLW2OjxABJsEgPLRh2kA8GknQI/FCAAyBSBOboH81MDngbcrpf4EeJXPNa2Lm33pKEG0OkxTZzXNPTVs3VVLS6yWrTtq17390LL1L67rSvOfDU4CQJlQSh3RWr/G5NpEwp+dAL0xo9YFx7QCdUj7UXFyaeBGrfWNwGvWpgbeDgRrSX6B0itZxg8vMH54Ae54/vfrtlWytbeWlu21NMdq2NJdQ2NnNdGq0Evu4eY0R+63mv+fo8SHNonSkwBQJlzX7TPfChj3tpgCdXV3EwqFyOWM26ruAg54WJLY+O7WWt8NbAM+qJS6Htjtc02eWJxYZXFilf4HX7g7tropSlNHNY2d1TS0V9LUUc3qUtbqbIO14X/z+QNRFiQAlA/zrYA+BYBIJEJHRyeDg8adjHciAUCYmQD+RWv9L8Aex3E+rrV+P1Drc12eW5lNszKbZvipOc/uKcP/m4OcBVA+jAPA0NAQ2WzGy1oKJusARAA84rruJ7TWnWsHD93ud0EBN8sLJh/ERiUBoHwYb6jPZbMMDw17WUvBenvN1wE4jiM7AYSXFsgfPHS11vpspdTfAc/6XVTQKKV+RH5dhdjgJACUjzlg2vRi33YC9Ji3ctdaywiAKJYnXdf9H1rr07XWZ2mt/xYJA/D/t3c/sXllZx3Hf+e1nTiJk9T5Z0/s989kitqB0g6LqmUxQ5GKhEAUwQIkukJiy6YS/5EQCAkJsUIsEGxZsKjYUBhmJKCjVqJIpWUqKDPJjH3f97Udx47jxDOOEzu+h8XrzHgyTnx9nmMf33u/HymLVj03D8hKfjnnPM8R2/91QgAol+BdgHStgB3LcgIAjsL/ajBXgDAwmLHwb6mLwNEgAJSIcy44AKRrBexYlk9LOvoZxqiz3WHgx733vyPpDUmPEtd1JHa2/2vxfysIAGVTuk6AVrtjeS61Ick0TAAw+B9Jf+69/5L3/hPe+6845/5GUpoLNUcgz/O/T10Djg4BoETyPA8/AsiyiJUUd+rUKV25csXyCS4C4jhYl/SPO90ELe/95733fyTpW5Kq0i+/pMFuB2qCAFAuM6ELe72uUj2uwz0AVEwu6buS/sR7/4r3ftx7/7L3/nc1aDF8kLa8MM65r0sKntqF8iEAlEvwDsDDhw91a3ExZi2FdTqd4LW0AqIENiR9W4N3CX7Ge3/Re/9l59yfavAv6vW05RXD07/1wyTAcrmlwWz8syGLu71Mz129GreiAlqtTvBaWgFRQvcl/Wue54+H6QxL+jFJP9loNL7gvf+ipE8p4HnvQ9TX4DgDNcIOQPmEXwRMdA+gbTsCYAcAZfdI0puS/jrP81/f6TC44L3/We/9H0j6uga7ez5VgTtPK7P9XzPsAJTPO5JeClmYqhWwbTgCkNTW4OeU1iRUyV1Jr0l6zfsP/t4/J+mzkl5qNBovee8/p8FDRof9fsF3JP3VIf8eOIYIACXjnHt31x8YB5KVcwdgRIMQELzzAZTEmgZ3Cb6968Ku0+Dn/0VJn2k0Gi96739U0jVJlyP8nt/13n9FBOxaIgCUTJ7n74T21fcSzQI4d+6cxsfHtbq6GvqJF0QAQD15SdnOr1ef6OQ5q0EQuCbpWqPRuOa9f/yfO5JOPOO795xzf5nn+Z9pcIkRNUQAKB/DMKA0RwCS1O48bwkAn5T0esRygCp4T4O7BW9KerLNtyFpUtJVSc9JmpI0rkGL4luS3vDe3z/KYnH8EADKJzgAvP/+e7qzsqILFy/GrKeQdqut//7+94LWNhqNa6lmGAAllUta2PkF7IkugPKZk2HQSJboGKBteBbYe08nAABERgAon1zSbOjiVPcALM8Ci1ZAAIiOAFBOwccAqToBjOOAr4mfVQCIij9US6iUzwLbZgGc0uAiEwAgEgJACeV5XrppgJcuXdaZM6Z5JhwDAEBEBIByCn8WuJdFLONgjPcAeBMAACIiAJRT8A7AnZUVvffeWsxaCusYOgEajQYBAAAiIgCU06wMoztTDQQyvgnAEQAAREQAKKdHknqhi7tZcBehSavVDl7LLAAAiIsAUF6lGwncaocHALEDAABREQBKytIK2E/WChh+B0CDp1IvRSoFAGqPAFBSllbAVOOAJyef08mTJy2fYBcAACIhAJRXeCtgogDQaDTUbDISGACOAwJAeQXvANxaXNSDB8HvCZkYRwLTCggAkRAAyutdST5kofe+lCOBmQUAAPEQAMprQ4a3vlONBKYVEACOBwJAuZXuHoCxFZAdAACIhABQYs654HsA/X7wHCGTTtvUCnhFg3ZAAIARAaDETK2AiaYBTjenNTQ8bPkEuwAAEAEBoNyCjwB6iaYBDg+PaOrqlOUT3AMAgAgIAOUWvAMwN9fX1tZWzFoK4x4AAKRHACi3G6ELt7e3tTA/H7OWwngWGADSIwCU25qk26GLU90DaLbCpwHSCggAcRAAyi+8FbCXRSyjuHarY1nODgAAREAAKDlTK2AvUSugYRqgpGlJp+JUAgD1RQAouTzPg3cAUh0BtNodOedClztJpmECAAACQBUE7wCkagUcHR3VxMSE5RPcAwAAIwJA+QUHgG43U57nMWspjFcBASAtAkD5BR8BbG5u6tbiYsxaCusYAgCtgABgRwAovyUN2gGDZN1UrYC8CggAKREAqqF09wDaHAEAQFIEgGoIDwC9RAHA1grYkTQSpRAAqCkCQAU45wytgFnESop7/nlTJ9+wpPBxggAAAkAVWJ4F7nWziJUUNzZ2VuMXLlg+wT0AADAgAFRDcACYTTQMSOIeAACkRACohuAjgPvr61pZCX5PyIRWQABIhwBQDXOSNkIXp7oHYBkGRCsgANgQAKrBSwrey091D6BleBZYHAEAgAkBoDoMI4FTtQKaOgFeED+/ABCMP0ArwtIKmGoHwPgs8Kikq3EqAYD6IQBUhKUVMEsUAC5evKSxsbOWT3APAAACEQCqw/QqYCrcAwCANAgA1RF8BLB6547W1oLfEzKx3AOgFRAAwhEAqiOTtBW6ONUugPEeAEcAABCIAFAdjyT1QhenawU0PQvMDgAABCIAVEv4RcBkw4DCA4DYAQCAYASACrG0AvYTPQvcaZtmAZyTdDlSKQBQKwSACiljK+DE5KRGR0ctn2AXAAACEACqpXTPAjcaDU1PNy2f4B4AAAQgAFRL8BHArVu3tLER/J6QSZtOAAA4cgSAanlXUh6y0Huf7h4AswAA4MgRAKrlgaSF0MWpOgGahmmAPAsMAGEIANUTPhK4l0Uso7h2q2NZzg4AAAQgAFSMrRUweI6QieUIQIM2wPORSgGA2iAAVIypFTCbjVlKYVPT0xoeHrF8gl0AADggAkD1BO8A9LppLgEODw9ramrK8gkCAAAcEAGgeoJ3AObn57S1FfyekAkjgQHgaBEAqid4B2B7e1vzc3MxaymMVkAAOFoEgOpZk7QcujjrprkH0GzSCggAR4kAUE2GkcBp7gG02x3LcnYAAOCACAAVZGkF7CWaBmgcBzwl6VScSgCgHggAFWRrBcwiVlJcq9VWoxH84+gkXYtYDgBUHgGgmgytgFnEMoobHR3VlYkJyye4BwAAB0AAqKbwOwC9rvI86D0hM+4BAMDRIQBUU/AOwObmphYXb8aspbCOIQDQCggAB0MAqKZlSfdCF6caCdxshQ8DohUQAA6GAFBdJWwFNE0DZAcAAA6AAFBRzjnTPYAU2rZXAduSTC8KAUCdEACqK/geQDdRK2DHNgtgWIMQAAAogABQUZZZAN1ErYBjY2d14eJFyye4BwAABREAqit8GFA3k/c+Zi2FtVsdy3LuAQBAQQSA6go+Ari/vq6VldsxaynMMhKYVkAAKI4AUF3zkjZCF6ccCRyKVkAAKI4AUF1e0kzo4lQjgWkFBICjQQCoNkMrYC9mHYUZWwFfED/TAFAIf1hWmOVZ4G6iaYCWccCSTmrwNDAAYB8EgAoztQImGgZ04eJFnT17zvIJ7gEAQAEEgGoLDwCJdgAkqdVqWZZzDwAACiAAVFvwEcDq6qru3Qt+T8jEcg+AVkAAKIYAUG1dSVuhi8vYCUArIAAUQwCotkcahIAg3USvAlpmAYgjAAAohABQfeEjgRPdA7BMA5T0I5HKAIBKIwBUnKUVsN9PswPQaZtmAYxJuhKpFACoLAJAxdleBUwTACYmJzU6Omr5BPcAAGAfBIDqK10roHNOzSatgABwmAgA1Rd8BLC0tKT79+/HrKUw4z0AAgAA7IMAUH0zkvKQhd579RNNBOzYZgFwBAAA+yAAVN8DDZ4GDpLqHoDlCMB7zw4AAOyDAFAPhouAiVoBbY8CsQMAAPsgANSApRUw3bPAHcvyS5I+EacSAKgmAkANWFoBUw0Dmpqa1vDwiOUTHAMAwDMQAOohOAD0Et0BGB4e1tTUlOUTBAAAeAYCQD0EHwEsLMxrayv4PSET4zEA9wAA4BkIAPUQHAC2t7c11+/HrKUwy0hgngUGgGcjANTDe5KWQhd3e1m8Sg6g2aIVEAAOCwGgPgwjgbOIZRRHKyAAHB4CQE3YWgHTXAQ03gG4Kul0nEoAoHoIADVhehUw0Q5Aq9VWoxH8I+okXYtYDgBUCgGgPgzTALOIZRR38uRJTUxOWj7BPQAAeAoCQH0EHwH0+z1tb2/HrKWwdqtjWc49AAB4CgJAfQQHgM3NTS0u3oxZS2GWewC0AgLA0xEA6uO2pLuhi7OE9wBCee/ZAQCApyAA1MtM6MJeonsA7XZ4ABB3AADgqQgANVLOVsDwaYCS2pJORCoFACqFAFAvwQEg3TAg0w7AkAYhAADwBAJAjZhmASQ6AhgbO6uLFy9ZPsExAADsgQBQL+EBoNeV9z5mLYUZdwG4CAgAeyAA1EvwEcD99XXdvr0cs5bCLPcAaAUEgL0RAOplQdL90MXpRgKbXgVkBwAA9kAAqBcvaTZ0cap7AMZXAdkBAIA9EADqx9AK2ItZR2HGVwGviZ9zAPgY/mCsGcssgG43ePPApNM2zQI4KWk6UikAUBkEgJqxtQKmGQY0fuGCzp49Z/kE9wAA4AkEgPoJDwBZmh0AiZHAABAbAaB+go8A7t69q3v37sWspTBaAQEgLgJA/XQlbQYvTrQLYNkBoBUQAD6OAFA/25KCr/OnugfQNDwLLI4AAOBjCAD1VMJOgI5lOTsAAPAEAkAN2Z4FTjULwNQKOCZpIlIpAFAJBIAaKuOrgBMTEzp16pTlE+wCAMAuBIB6MrQCZhHLKM45p2Yz/E0AcQ8AAD6CAFBPwUcAS0u3dH99PWYthVlGAtMKCAAfRQCopxlJeejiVPcAjCOBOQIAgF0IAPX0UNJc6OJuL4tXyQE0bc8CswMAALsQAOqrdCOBjc8CswMAALsQAGqqnK2AHcvyi5LG41QCAOVHAKipMrYCTk1Na2RkxPIJjgEAYAcBoL5K1wo4NDSkq1NTlk8QAABgBwGgvoKPABYW5rW5GfyekEnHNhGQewAAsIMAUF/BASDPc83N9WPWUpjlIiCzAADgQwSA+npf0q3QxanuAbQMrwLSCggAHyIA1Fvp7gHQCggAcRAAaszWCtiNWUphxlbA5ySdiVMJAJQbAaDGTK2AiXYAWq22Go3gH1sn6VrEcgCgtAgA9Va6WQAnTpzQ5ORzlk9wDwAARACou+AjgH6/p+3t7Zi1FMY9AACwIwDUW3AA2Nra0s2bCzFrKYxngQHAjgBQbyuSVkMXd7tpLgLSCggAdgQAzIQuTPcqYHgAEEcAACCJAFB75XwV0DQOuCXpRKRSAKC0CAAwtAKm2QHo2C4BDkkyfQAAqoAAUHOmWQC9LGIlxZ0+c0aXLl22fIJ7AABqjwCA4COAbpbJex+zlsK4BwAANgQABAeAjY0NLS8vxaylMMs9AFoBAYAAAOmmpPXQxb1krYCt4LW0AgIAAQCSlxR8my9LdBGwxTRAADAhAEAyHAOkagU0dgI8r0E3AADUFgEAcs4ZHgVKNQyoY1l+UtJ0nEoAoJwIALC1Aia6AzB+4YLOnz9v+QT3AADUGgEAkuEIIJsNniRsZnkTQNwDAFBzBABIhgCwtramu3fvxqylMF4FBIBwBABIUk/SZujidI8CdYLXeu/ZAQBQawQASNK2pODD/FT3AJq2IwB2AADUGgEAj4WPBE7UCWBsBXxBkotTCQCUDwEAkmr5LPCYpIlIpQBA6RAAIMnaCphFrKS4K1eu6PTp05ZPcAwAoLYIAHgsPABkWcQyinPOaboZ/iaAaAUEUGMEADwWfASwvLyk9fX3Y9ZSWIdWQAAIQgDAY7MadAMESXYPoNWxLGcHAEBtEQDw2ENJ86GLU90DaPIsMAAEIQBgt/BWwET3ADq2TgB2AADUFgEAH7C1AqYZBmQZByzpgqTxOJUAQLkQAPABSytgL9ERwNWrUxoZGbF8gl0AALVEAMBuwQEgS3QEMDQ0pKnpacsnuAcAoJYIANgt+Ajg5s0FbW4Gvydk0mlzDwAADooAgN3eleRDFuZ5rn4/1UjgTvBaZgEAqCsCAHZ7X9JS6OJUrYAtw6uAtAICqCsCAJ5UulbAdtv0LDBHAABqiQCAjyhnK6DpDsCkBi8DAkCtEADwEbZWwDQBoNlsaWhoKHS5k3QtYjkAUAoEADwpvBWwOxuzjsJOnDihiYlJyye4BwCgdggAeFLwEUC/19f2dvB7QiaMBAaAgyEA4EnBOwCPHm1pYSH4PSETWgEB4GAIAHjSiqTV0MWp7gHQCggAB0MAwF4MI4HT3ANo0QoIAAdCAMDH2FoB00wDNN4BaEk6GakUACgFAgD2UrpXAduttpxzocsbkjrxqgGA448AgI+xzALIEgWA02fO6NKly5ZPcA8AQK0QALCX8COAbibvg94TMmMkMAAURwDAXoJ3ADY2NrS0FPyekIllJDCtgADqhgCAvdyUtB66ONU9gFarFbyWVkAAdUMAwF68pJnQxVmiVwFb7Y5lOUcAAGqFAICnCR8J3E8zDKhjCwDPSwp+UQgAyoYAgD0550o4DKhjWX5CUjNOJQBw/BEAsCdLK2A30Tjg8fFxnT9/3vIJ7gEAqA0CAJ4m+Aigm2gHQOIeAAAURQDA0wTvAKytrWl1Nfg9IZMOrwICQCEEADxNT9Jm8OJUI4ENOwC0AgKoEwIAnmZbUha6ONVI4GaTaYAAUAQBAM9SunsAliMADQJA8ItCAFAmBAA8laUVMNWzwG1bADgtaTJOJQBwvBEA8FSWVsBUdwAuX76i06dPWz7BPQAAtUAAwLPcCF2Yahywc04tXgUEgH0RAPAswTsAt28va339/Zi1FNZudSzLpyKVAQDHGgEAzzKrQTdAkFQTAS3DgBqNxuV4lQDA8UUAwLNsSpoLXdxNdA9gZGTYspwHgQDUAgEA+zG0AmYRyyhudtbUgvgoVh0AcJwRAPBMzrngANDrHf0RwNtv/Z9ef/1fgtfneb4YsRwAOLYIAHgm06uAR7gD4L3XG9/8d331q7+q7Uemf8TPxKoJAI4z02EpaiF4B+D69bflvZdz8YbrPXz4UN1sVrPZrLLZWWXZ4Nf1629r9c6dGL/Ff8X4CAAcdwQA7Cd4B2Bl5bZe/edv6Od+/hcOtG5ra0v9fk/Z7IxmZmbU7WbKZmeUZZkWFublvQ8taT99sQMAoCYIANjPOxq0Agbdjv/t3/qaxsbO6pWf+tJH/vtHjx5pfn5O3SxTls1qdnZm8K/52VnNzc9Zt/GDOOf+4RDDBQAcKzx8gn05596S9CnLNz730k/o059+UcvLy8pmZ9Tv97S1tRWpwji89y9JejN1HQBwFAgA2Fej0fhb7/1vpK7jkH3Te//TqYsAgKNCFwD2lef5P6Wu4ZB57/3vpy4CAI4SAQBFvCrpduoiDotz7u8k/UfqOgDgKDH2FEVsNxqNcUkvpy7kEPS9978o6UHqQgDgKHEHAEVdcs69K+lc6kIiuu+9f1nS91IXAgBHjR0AFHVf0opz7mBN/cfXA+/9L0v6VupCACAFAgAO4vvOuS9K+mTqQozu7vzl/3rqQgAgFY4AcFDTzrn/lHQ1dSGBfuC9/xVJb6cuBABSogsABzXnvf+ypKXUhRzQuvf+j733nxd/+QMAEOyzzrll55w/5r/uNBqNv5D0XOr/hwHAccIRACyaOz30r6QuZJdtSW85576T5/k3JL0maSNxTQBw7BAAYDUk6Q+dc78n6eQR/r6Lkq47527keX5Dg0eLbuz84i98ANgHAQCxXGk0Gl/z3v+mpNORvrkqacY5NyNpJs/zGUk/lPQDSWuRfg8AqCUCALEZGHAAAABgSURBVGKbkPRrzrlfkvQFSSf2+d/fk3TDOXdD0o08z6/rw3/Jrx5qpQBQYwQAHKZRSZ+R9IKkC5LOSrqz82tRg7/kl5NVBwAAAAAAAAAAAAAAAAAAAAAAAAAAAADHz/8DXI0fXI1inaAAAAAASUVORK5CYII=" parent="dTW9vSq1-uFD9PDRzDju-40" vertex="1">
          <mxGeometry x="4" width="62" height="62" as="geometry" />
        </mxCell>
        <mxCell id="dTW9vSq1-uFD9PDRzDju-38" value="APUESTA" style="shape=tape;whiteSpace=wrap;html=1;size=0.2;fillColor=#80FF00;fontColor=#000000;strokeColor=#2D7600;fontStyle=1;fontFamily=Lucida Console;" parent="dTW9vSq1-uFD9PDRzDju-40" vertex="1">
          <mxGeometry y="40" width="70" height="40" as="geometry" />
        </mxCell>
        <mxCell id="TnKpKdlB11n7KbrreNO4-32" value="__init__" style="swimlane;horizontal=0;whiteSpace=wrap;html=1;fontFamily=Lucida Console;fontSize=16;startSize=30;" vertex="1" parent="WIyWlLk6GJQsqaUBKTNV-1">
          <mxGeometry x="1520" y="860" width="190" height="290" as="geometry" />
        </mxCell>
        <mxCell id="TnKpKdlB11n7KbrreNO4-0" value="&lt;font style=&quot;font-size: 12px;&quot; face=&quot;Lucida Console&quot;&gt;Saldo inicial&lt;/font&gt;" style="rounded=1;whiteSpace=wrap;html=1;arcSize=50;points=[[0,0.5,0,0,0],[0.5,0,0,0,0],[0.5,1,0,0,0],[1,0.5,0,0,0]];fillColor=#FF99FF;fontColor=#000000;strokeColor=#3700CC;fontStyle=1" vertex="1" parent="TnKpKdlB11n7KbrreNO4-32">
          <mxGeometry x="50" y="30" width="120" height="20" as="geometry" />
        </mxCell>
        <mxCell id="TnKpKdlB11n7KbrreNO4-5" value="&lt;font style=&quot;font-size: 12px;&quot; face=&quot;Lucida Console&quot;&gt;Apuesta Mínima&lt;/font&gt;" style="rounded=1;whiteSpace=wrap;html=1;arcSize=50;points=[[0,0.5,0,0,0],[0.5,0,0,0,0],[0.5,1,0,0,0],[1,0.5,0,0,0]];fillColor=#FF99FF;fontColor=#000000;strokeColor=#3700CC;fontStyle=1" vertex="1" parent="TnKpKdlB11n7KbrreNO4-32">
          <mxGeometry x="50" y="50" width="120" height="20" as="geometry" />
        </mxCell>
        <mxCell id="TnKpKdlB11n7KbrreNO4-6" value="&lt;font face=&quot;Lucida Console&quot;&gt;Apuesta Máxima&lt;/font&gt;" style="rounded=1;whiteSpace=wrap;html=1;arcSize=50;points=[[0,0.5,0,0,0],[0.5,0,0,0,0],[0.5,1,0,0,0],[1,0.5,0,0,0]];fillColor=#FF99FF;fontColor=#000000;strokeColor=#3700CC;fontStyle=1" vertex="1" parent="TnKpKdlB11n7KbrreNO4-32">
          <mxGeometry x="50" y="70" width="120" height="20" as="geometry" />
        </mxCell>
        <mxCell id="TnKpKdlB11n7KbrreNO4-7" value="&lt;font face=&quot;Lucida Console&quot;&gt;Nº Op.Aciertos&lt;/font&gt;" style="rounded=1;whiteSpace=wrap;html=1;arcSize=50;points=[[0,0.5,0,0,0],[0.5,0,0,0,0],[0.5,1,0,0,0],[1,0.5,0,0,0]];fillColor=#FF99FF;fontColor=#000000;strokeColor=#3700CC;fontStyle=1" vertex="1" parent="TnKpKdlB11n7KbrreNO4-32">
          <mxGeometry x="50" y="90" width="120" height="20" as="geometry" />
        </mxCell>
        <mxCell id="TnKpKdlB11n7KbrreNO4-8" value="&lt;font face=&quot;Lucida Console&quot;&gt;Nº Op.fallos&lt;/font&gt;" style="rounded=1;whiteSpace=wrap;html=1;arcSize=50;points=[[0,0.5,0,0,0],[0.5,0,0,0,0],[0.5,1,0,0,0],[1,0.5,0,0,0]];fillColor=#FF99FF;fontColor=#000000;strokeColor=#3700CC;fontStyle=1" vertex="1" parent="TnKpKdlB11n7KbrreNO4-32">
          <mxGeometry x="50" y="110" width="120" height="20" as="geometry" />
        </mxCell>
        <mxCell id="TnKpKdlB11n7KbrreNO4-18" value="Límite Aciertos" style="rounded=1;whiteSpace=wrap;html=1;arcSize=50;points=[[0,0.5,0,0,0],[0.5,0,0,0,0],[0.5,1,0,0,0],[1,0.5,0,0,0]];fillColor=#FF99FF;fontColor=#000000;strokeColor=#3700CC;fontStyle=1;fontFamily=Lucida Console;" vertex="1" parent="TnKpKdlB11n7KbrreNO4-32">
          <mxGeometry x="50" y="130" width="120" height="20" as="geometry" />
        </mxCell>
        <mxCell id="TnKpKdlB11n7KbrreNO4-20" value="Límite Fallos" style="rounded=1;whiteSpace=wrap;html=1;arcSize=50;points=[[0,0.5,0,0,0],[0.5,0,0,0,0],[0.5,1,0,0,0],[1,0.5,0,0,0]];fillColor=#FF99FF;fontColor=#000000;strokeColor=#3700CC;fontStyle=1;fontFamily=Lucida Console;" vertex="1" parent="TnKpKdlB11n7KbrreNO4-32">
          <mxGeometry x="50" y="150" width="120" height="20" as="geometry" />
        </mxCell>
        <mxCell id="TnKpKdlB11n7KbrreNO4-9" value="&lt;font face=&quot;Lucida Console&quot;&gt;Nº Op.Total&lt;/font&gt;" style="rounded=1;whiteSpace=wrap;html=1;arcSize=50;points=[[0,0.5,0,0,0],[0.5,0,0,0,0],[0.5,1,0,0,0],[1,0.5,0,0,0]];fillColor=#9933FF;fontColor=#000000;strokeColor=#3700CC;fontStyle=1" vertex="1" parent="TnKpKdlB11n7KbrreNO4-32">
          <mxGeometry x="50" y="200" width="120" height="20" as="geometry" />
        </mxCell>
        <mxCell id="TnKpKdlB11n7KbrreNO4-10" value="&lt;font face=&quot;Lucida Console&quot;&gt;Base % Aciertos&lt;/font&gt;" style="rounded=1;whiteSpace=wrap;html=1;arcSize=50;points=[[0,0.5,0,0,0],[0.5,0,0,0,0],[0.5,1,0,0,0],[1,0.5,0,0,0]];fillColor=#9933FF;fontColor=#000000;strokeColor=#3700CC;fontStyle=1" vertex="1" parent="TnKpKdlB11n7KbrreNO4-32">
          <mxGeometry x="50" y="220" width="120" height="20" as="geometry" />
        </mxCell>
        <mxCell id="TnKpKdlB11n7KbrreNO4-11" value="&lt;font face=&quot;Lucida Console&quot;&gt;Base % Fallos&lt;/font&gt;" style="rounded=1;whiteSpace=wrap;html=1;arcSize=50;points=[[0,0.5,0,0,0],[0.5,0,0,0,0],[0.5,1,0,0,0],[1,0.5,0,0,0]];fillColor=#9933FF;fontColor=#000000;strokeColor=#3700CC;fontStyle=1" vertex="1" parent="TnKpKdlB11n7KbrreNO4-32">
          <mxGeometry x="50" y="240" width="120" height="20" as="geometry" />
        </mxCell>
      </root>
    </mxGraphModel>
  </diagram>
</mxfile>
